<?xml version="1.0" standalone="no"?>
<!DOCTYPE svg PUBLIC "-//W3C//DTD SVG 20010904//EN"
 "http://www.w3.org/TR/2001/REC-SVG-20010904/DTD/svg10.dtd">
<svg version="1.0" xmlns="http://www.w3.org/2000/svg"
 width="225.000000pt" height="225.000000pt" viewBox="0 0 225.000000 225.000000"
 preserveAspectRatio="xMidYMid meet">

<g transform="translate(0.000000,225.000000) scale(0.100000,-0.100000)"
fill="#000000" stroke="none">
<path d="M0 1125 l0 -1125 1125 0 1125 0 0 1125 0 1125 -1125 0 -1125 0 0
-1125z m1329 535 l-119 -199 -65 -3 -65 -3 60 -93 c33 -51 60 -97 60 -102 0
-5 -13 -30 -29 -56 l-30 -46 -44 68 c-24 38 -66 106 -93 151 l-49 82 -85 1
c-145 2 -167 9 -196 58 l-25 42 245 0 245 0 60 100 c34 56 61 103 61 105 0 3
-135 5 -300 5 -165 0 -300 -3 -300 -7 0 -3 14 -30 30 -60 17 -29 30 -55 30
-58 0 -3 -27 -5 -59 -5 l-60 0 -52 88 c-29 48 -59 97 -67 110 l-14 22 490 0
490 0 -119 -200z m448 193 c-3 -5 -75 -125 -162 -268 -87 -143 -223 -368 -303
-500 -80 -132 -155 -255 -167 -273 l-22 -33 -18 27 c-10 15 -55 88 -100 163
-45 75 -118 196 -163 269 l-81 133 66 -3 66 -3 115 -198 115 -197 76 126 c42
69 150 248 241 398 l165 271 -82 3 -83 3 30 44 31 45 140 0 c77 0 138 -3 136
-7z m-1005 -1220 c35 -32 19 -143 -21 -143 -6 0 0 -22 14 -50 l25 -50 -33 0
c-30 0 -35 5 -65 65 -41 85 -41 95 3 95 23 0 35 5 35 14 0 10 -15 15 -50 18
l-50 3 0 -98 0 -98 -30 3 -31 3 0 110 c-1 61 0 118 0 128 1 15 12 17 93 17 71
0 95 -4 110 -17z m314 -113 l63 -125 -36 -3 c-25 -2 -39 1 -45 12 -7 12 -24
16 -63 16 -30 0 -55 2 -55 5 0 23 27 55 47 55 26 0 30 17 9 46 -17 23 -15 25
-60 -63 -36 -72 -37 -73 -76 -73 l-40 0 65 131 c65 128 66 130 97 127 28 -3
35 -12 94 -128z m221 55 l38 -75 37 75 c37 72 40 75 73 75 19 0 35 -4 35 -9 0
-6 -27 -64 -61 -130 -82 -165 -87 -165 -174 9 l-65 130 40 0 c40 0 40 0 77
-75z m323 -55 l0 -130 -30 0 -30 0 0 130 0 130 30 0 30 0 0 -130z"/>
<path d="M508 1843 c6 -2 18 -2 25 0 6 3 1 5 -13 5 -14 0 -19 -2 -12 -5z"/>
<path d="M913 1843 c246 -3 287 -5 287 -18 0 -11 -11 -15 -37 -15 -20 0 -33
-3 -29 -7 8 -8 14 -9 94 -11 43 -2 52 -5 52 -20 0 -10 -5 -23 -11 -29 -8 -8
-5 -15 12 -24 13 -7 27 -12 31 -11 10 2 3 -27 -9 -39 -8 -8 -13 -7 -18 2 -5 7
-4 10 3 5 17 -10 23 10 7 24 -12 10 -16 8 -24 -11 -5 -13 -10 -18 -10 -11 -1
19 -25 14 -39 -9 -10 -16 -10 -19 -1 -13 8 5 11 2 6 -8 -3 -9 -1 -20 5 -26 6
-6 6 -12 -1 -16 -6 -4 -12 -5 -12 -2 -1 3 -3 11 -4 16 -1 6 -3 13 -4 18 -1 4
-7 -3 -14 -14 -6 -12 -18 -32 -25 -44 -8 -12 -10 -20 -4 -16 5 3 12 -1 15 -8
4 -10 0 -13 -14 -11 -11 2 -17 0 -15 -4 11 -16 79 -5 92 15 12 17 11 20 -6 21
-11 1 -20 -4 -20 -13 0 -16 -16 -19 -25 -4 -3 6 -1 10 5 10 7 0 9 8 5 21 -6
17 -4 20 6 13 26 -16 54 -15 66 3 17 22 17 36 1 27 -8 -4 -10 -3 -5 2 5 5 13
9 19 9 5 0 22 20 36 44 16 28 21 42 12 37 -8 -4 -6 1 6 11 19 17 74 97 74 108
0 3 -179 4 -397 3 -360 -2 -371 -3 -110 -5z m393 -97 c0 -13 -4 -22 -8 -20 -9
6 -6 44 3 44 4 0 6 -11 5 -24z m-46 -104 c0 -15 -2 -15 -10 -2 -13 20 -13 33
0 25 6 -3 10 -14 10 -23z m-60 -56 c0 -3 -4 -8 -10 -11 -5 -3 -10 -1 -10 4 0
6 5 11 10 11 6 0 10 -2 10 -4z"/>
<path d="M1246 1712 c-3 -5 1 -9 9 -9 8 0 12 4 9 9 -3 4 -7 8 -9 8 -2 0 -6 -4
-9 -8z"/>
<path d="M1203 1499 c-2 -23 3 -25 10 -4 4 8 3 16 -1 19 -4 3 -9 -4 -9 -15z"/>
<path d="M1105 1499 c-4 -6 -5 -12 -2 -15 2 -3 7 2 10 11 7 17 1 20 -8 4z"/>
<path d="M778 1483 c7 -3 16 -2 19 1 4 3 -2 6 -13 5 -11 0 -14 -3 -6 -6z"/>
<path d="M1060 1436 c0 -2 8 -10 18 -17 15 -13 16 -12 3 4 -13 16 -21 21 -21
13z"/>
<path d="M996 1418 c3 -5 10 -6 15 -3 13 9 11 12 -6 12 -8 0 -12 -4 -9 -9z"/>
<path d="M1020 1393 c0 -6 7 -16 15 -23 8 -7 12 -17 8 -23 -4 -6 -1 -7 6 -3 9
6 8 13 -6 29 -10 12 -19 24 -20 26 -2 2 -3 0 -3 -6z"/>
<path d="M1117 1225 c3 -8 9 -12 14 -9 12 7 11 11 -5 17 -10 4 -13 1 -9 -8z"/>
<path d="M1492 1820 c-12 -16 -22 -31 -22 -34 0 -3 36 -6 80 -8 l80 -3 -70
-113 c-38 -63 -70 -116 -70 -119 0 -3 -9 -18 -20 -33 -36 -50 -91 -153 -75
-140 13 10 15 9 15 -9 0 -22 14 -28 25 -11 4 6 11 8 16 5 5 -4 9 -2 9 3 0 6
15 32 33 58 26 39 131 212 200 329 7 11 25 39 40 62 l28 43 -124 0 -123 0 -22
-30z m-67 -421 c-5 -14 -3 -19 3 -15 6 3 14 1 18 -5 4 -8 3 -9 -4 -5 -8 4 -12
0 -13 -11 0 -14 -2 -14 -9 5 -5 12 -7 29 -4 37 9 23 16 18 9 -6z"/>
<path d="M1345 1311 c-3 -5 -2 -12 3 -15 5 -3 9 1 9 9 0 17 -3 19 -12 6z"/>
<path d="M1321 1267 c-13 -21 -12 -21 5 -5 10 10 16 20 13 22 -3 3 -11 -5 -18
-17z"/>
<path d="M1340 1180 c-6 -11 -8 -20 -6 -20 3 0 10 9 16 20 6 11 8 20 6 20 -3
0 -10 -9 -16 -20z"/>
</g>
</svg>
